<mxfile host="app.diagrams.net" modified="2024-04-02T14:03:45.528Z" agent="Mozilla/5.0 (Windows NT 10.0; Win64; x64) AppleWebKit/537.36 (KHTML, like Gecko) Chrome/123.0.0.0 Safari/537.36" etag="Ut8oxijGLFup_EZtjEcT" version="24.2.1" type="github">
  <diagram name="PÃ¡gina-1" id="K9grkGZ-7-B6j2kyRMEG">
    <mxGraphModel dx="1050" dy="626" grid="1" gridSize="10" guides="1" tooltips="1" connect="1" arrows="1" fold="1" page="1" pageScale="1" pageWidth="1169" pageHeight="827" math="0" shadow="0">
      <root>
        <mxCell id="0" />
        <mxCell id="1" parent="0" />
        <mxCell id="W41EgBRjmot6BUHBme8W-34" style="edgeStyle=orthogonalEdgeStyle;rounded=0;orthogonalLoop=1;jettySize=auto;html=1;exitX=0;exitY=0.75;exitDx=0;exitDy=0;entryX=1;entryY=0.5;entryDx=0;entryDy=0;" parent="1" source="W41EgBRjmot6BUHBme8W-1" target="W41EgBRjmot6BUHBme8W-11" edge="1">
          <mxGeometry relative="1" as="geometry" />
        </mxCell>
        <mxCell id="W41EgBRjmot6BUHBme8W-35" style="edgeStyle=orthogonalEdgeStyle;rounded=0;orthogonalLoop=1;jettySize=auto;html=1;exitX=0;exitY=0.5;exitDx=0;exitDy=0;entryX=1;entryY=0.5;entryDx=0;entryDy=0;" parent="1" source="W41EgBRjmot6BUHBme8W-1" target="W41EgBRjmot6BUHBme8W-10" edge="1">
          <mxGeometry relative="1" as="geometry" />
        </mxCell>
        <mxCell id="W41EgBRjmot6BUHBme8W-36" style="edgeStyle=orthogonalEdgeStyle;rounded=0;orthogonalLoop=1;jettySize=auto;html=1;exitX=0;exitY=0;exitDx=0;exitDy=0;entryX=0.5;entryY=1;entryDx=0;entryDy=0;" parent="1" source="W41EgBRjmot6BUHBme8W-1" target="W41EgBRjmot6BUHBme8W-8" edge="1">
          <mxGeometry relative="1" as="geometry" />
        </mxCell>
        <mxCell id="W41EgBRjmot6BUHBme8W-37" style="edgeStyle=orthogonalEdgeStyle;rounded=0;orthogonalLoop=1;jettySize=auto;html=1;exitX=0.5;exitY=0;exitDx=0;exitDy=0;entryX=0.5;entryY=1;entryDx=0;entryDy=0;" parent="1" source="W41EgBRjmot6BUHBme8W-1" target="W41EgBRjmot6BUHBme8W-9" edge="1">
          <mxGeometry relative="1" as="geometry" />
        </mxCell>
        <mxCell id="W41EgBRjmot6BUHBme8W-1" value="Jugadores" style="rounded=0;whiteSpace=wrap;html=1;" parent="1" vertex="1">
          <mxGeometry x="170" y="100" width="120" height="60" as="geometry" />
        </mxCell>
        <mxCell id="W41EgBRjmot6BUHBme8W-41" style="edgeStyle=orthogonalEdgeStyle;rounded=0;orthogonalLoop=1;jettySize=auto;html=1;exitX=1;exitY=0.25;exitDx=0;exitDy=0;entryX=0.5;entryY=1;entryDx=0;entryDy=0;" parent="1" source="W41EgBRjmot6BUHBme8W-2" target="W41EgBRjmot6BUHBme8W-18" edge="1">
          <mxGeometry relative="1" as="geometry" />
        </mxCell>
        <mxCell id="W41EgBRjmot6BUHBme8W-42" style="edgeStyle=orthogonalEdgeStyle;rounded=0;orthogonalLoop=1;jettySize=auto;html=1;exitX=1;exitY=0.75;exitDx=0;exitDy=0;entryX=0;entryY=0.5;entryDx=0;entryDy=0;" parent="1" source="W41EgBRjmot6BUHBme8W-2" target="W41EgBRjmot6BUHBme8W-19" edge="1">
          <mxGeometry relative="1" as="geometry" />
        </mxCell>
        <mxCell id="W41EgBRjmot6BUHBme8W-2" value="Partidos" style="rounded=0;whiteSpace=wrap;html=1;" parent="1" vertex="1">
          <mxGeometry x="535" y="216" width="120" height="60" as="geometry" />
        </mxCell>
        <mxCell id="W41EgBRjmot6BUHBme8W-38" style="edgeStyle=orthogonalEdgeStyle;rounded=0;orthogonalLoop=1;jettySize=auto;html=1;exitX=0.5;exitY=0;exitDx=0;exitDy=0;entryX=0.5;entryY=1;entryDx=0;entryDy=0;" parent="1" source="W41EgBRjmot6BUHBme8W-3" target="W41EgBRjmot6BUHBme8W-27" edge="1">
          <mxGeometry relative="1" as="geometry" />
        </mxCell>
        <mxCell id="W41EgBRjmot6BUHBme8W-39" style="edgeStyle=orthogonalEdgeStyle;rounded=0;orthogonalLoop=1;jettySize=auto;html=1;exitX=1;exitY=0;exitDx=0;exitDy=0;entryX=0;entryY=1;entryDx=0;entryDy=0;" parent="1" source="W41EgBRjmot6BUHBme8W-3" target="W41EgBRjmot6BUHBme8W-20" edge="1">
          <mxGeometry relative="1" as="geometry" />
        </mxCell>
        <mxCell id="W41EgBRjmot6BUHBme8W-40" style="edgeStyle=orthogonalEdgeStyle;rounded=0;orthogonalLoop=1;jettySize=auto;html=1;exitX=1;exitY=0.5;exitDx=0;exitDy=0;entryX=0;entryY=0.5;entryDx=0;entryDy=0;" parent="1" source="W41EgBRjmot6BUHBme8W-3" target="W41EgBRjmot6BUHBme8W-22" edge="1">
          <mxGeometry relative="1" as="geometry" />
        </mxCell>
        <mxCell id="W41EgBRjmot6BUHBme8W-3" value="Goles" style="rounded=0;whiteSpace=wrap;html=1;" parent="1" vertex="1">
          <mxGeometry x="660" y="85" width="120" height="60" as="geometry" />
        </mxCell>
        <mxCell id="W41EgBRjmot6BUHBme8W-43" style="edgeStyle=orthogonalEdgeStyle;rounded=0;orthogonalLoop=1;jettySize=auto;html=1;exitX=1;exitY=0.25;exitDx=0;exitDy=0;entryX=0;entryY=0.5;entryDx=0;entryDy=0;" parent="1" source="W41EgBRjmot6BUHBme8W-4" target="W41EgBRjmot6BUHBme8W-32" edge="1">
          <mxGeometry relative="1" as="geometry" />
        </mxCell>
        <mxCell id="W41EgBRjmot6BUHBme8W-44" style="edgeStyle=orthogonalEdgeStyle;rounded=0;orthogonalLoop=1;jettySize=auto;html=1;exitX=1;exitY=0.75;exitDx=0;exitDy=0;entryX=0;entryY=0;entryDx=0;entryDy=0;" parent="1" source="W41EgBRjmot6BUHBme8W-4" target="W41EgBRjmot6BUHBme8W-31" edge="1">
          <mxGeometry relative="1" as="geometry" />
        </mxCell>
        <mxCell id="W41EgBRjmot6BUHBme8W-45" style="edgeStyle=orthogonalEdgeStyle;rounded=0;orthogonalLoop=1;jettySize=auto;html=1;exitX=0.75;exitY=1;exitDx=0;exitDy=0;entryX=0;entryY=0;entryDx=0;entryDy=0;" parent="1" source="W41EgBRjmot6BUHBme8W-4" target="W41EgBRjmot6BUHBme8W-33" edge="1">
          <mxGeometry relative="1" as="geometry" />
        </mxCell>
        <mxCell id="W41EgBRjmot6BUHBme8W-46" style="edgeStyle=orthogonalEdgeStyle;rounded=0;orthogonalLoop=1;jettySize=auto;html=1;exitX=0.5;exitY=1;exitDx=0;exitDy=0;entryX=0.5;entryY=0;entryDx=0;entryDy=0;" parent="1" source="W41EgBRjmot6BUHBme8W-4" target="W41EgBRjmot6BUHBme8W-30" edge="1">
          <mxGeometry relative="1" as="geometry" />
        </mxCell>
        <mxCell id="W41EgBRjmot6BUHBme8W-47" style="edgeStyle=orthogonalEdgeStyle;rounded=0;orthogonalLoop=1;jettySize=auto;html=1;exitX=0.25;exitY=1;exitDx=0;exitDy=0;entryX=1;entryY=0;entryDx=0;entryDy=0;" parent="1" source="W41EgBRjmot6BUHBme8W-4" target="W41EgBRjmot6BUHBme8W-29" edge="1">
          <mxGeometry relative="1" as="geometry" />
        </mxCell>
        <mxCell id="W41EgBRjmot6BUHBme8W-58" style="edgeStyle=orthogonalEdgeStyle;rounded=0;orthogonalLoop=1;jettySize=auto;html=1;exitX=1;exitY=0.5;exitDx=0;exitDy=0;entryX=0;entryY=0.5;entryDx=0;entryDy=0;" parent="1" source="W41EgBRjmot6BUHBme8W-4" target="W41EgBRjmot6BUHBme8W-28" edge="1">
          <mxGeometry relative="1" as="geometry" />
        </mxCell>
        <mxCell id="W41EgBRjmot6BUHBme8W-4" value="Presidente" style="rounded=0;whiteSpace=wrap;html=1;" parent="1" vertex="1">
          <mxGeometry x="590" y="400" width="120" height="60" as="geometry" />
        </mxCell>
        <mxCell id="W41EgBRjmot6BUHBme8W-49" style="edgeStyle=orthogonalEdgeStyle;rounded=0;orthogonalLoop=1;jettySize=auto;html=1;exitX=0.5;exitY=1;exitDx=0;exitDy=0;entryX=0.5;entryY=0;entryDx=0;entryDy=0;" parent="1" source="W41EgBRjmot6BUHBme8W-5" target="W41EgBRjmot6BUHBme8W-17" edge="1">
          <mxGeometry relative="1" as="geometry" />
        </mxCell>
        <mxCell id="W41EgBRjmot6BUHBme8W-50" style="edgeStyle=orthogonalEdgeStyle;rounded=0;orthogonalLoop=1;jettySize=auto;html=1;exitX=0;exitY=1;exitDx=0;exitDy=0;" parent="1" source="W41EgBRjmot6BUHBme8W-5" target="W41EgBRjmot6BUHBme8W-16" edge="1">
          <mxGeometry relative="1" as="geometry" />
        </mxCell>
        <mxCell id="W41EgBRjmot6BUHBme8W-51" style="edgeStyle=orthogonalEdgeStyle;rounded=0;orthogonalLoop=1;jettySize=auto;html=1;exitX=0;exitY=0.5;exitDx=0;exitDy=0;" parent="1" source="W41EgBRjmot6BUHBme8W-5" target="W41EgBRjmot6BUHBme8W-13" edge="1">
          <mxGeometry relative="1" as="geometry" />
        </mxCell>
        <mxCell id="W41EgBRjmot6BUHBme8W-52" style="edgeStyle=orthogonalEdgeStyle;rounded=0;orthogonalLoop=1;jettySize=auto;html=1;exitX=0;exitY=0.25;exitDx=0;exitDy=0;" parent="1" source="W41EgBRjmot6BUHBme8W-5" target="W41EgBRjmot6BUHBme8W-14" edge="1">
          <mxGeometry relative="1" as="geometry" />
        </mxCell>
        <mxCell id="W41EgBRjmot6BUHBme8W-53" style="edgeStyle=orthogonalEdgeStyle;rounded=0;orthogonalLoop=1;jettySize=auto;html=1;exitX=0.25;exitY=0;exitDx=0;exitDy=0;entryX=1;entryY=1;entryDx=0;entryDy=0;" parent="1" source="W41EgBRjmot6BUHBme8W-5" target="W41EgBRjmot6BUHBme8W-12" edge="1">
          <mxGeometry relative="1" as="geometry" />
        </mxCell>
        <mxCell id="W41EgBRjmot6BUHBme8W-5" value="Equipos" style="rounded=0;whiteSpace=wrap;html=1;" parent="1" vertex="1">
          <mxGeometry x="150" y="354" width="120" height="60" as="geometry" />
        </mxCell>
        <mxCell id="W41EgBRjmot6BUHBme8W-8" value="nombre" style="ellipse;whiteSpace=wrap;html=1;" parent="1" vertex="1">
          <mxGeometry x="100" y="30" width="80" height="40" as="geometry" />
        </mxCell>
        <mxCell id="W41EgBRjmot6BUHBme8W-9" value="fecha nac" style="ellipse;whiteSpace=wrap;html=1;" parent="1" vertex="1">
          <mxGeometry x="210" y="30" width="80" height="40" as="geometry" />
        </mxCell>
        <mxCell id="W41EgBRjmot6BUHBme8W-10" value="posicion" style="ellipse;whiteSpace=wrap;html=1;" parent="1" vertex="1">
          <mxGeometry x="50" y="90" width="80" height="40" as="geometry" />
        </mxCell>
        <mxCell id="W41EgBRjmot6BUHBme8W-11" value="&lt;u data-sider-select-id=&quot;01796080-8658-4c96-9d46-ba0683f03ce7&quot;&gt;cod. jugador&lt;/u&gt;" style="ellipse;whiteSpace=wrap;html=1;" parent="1" vertex="1">
          <mxGeometry x="60" y="150" width="80" height="40" as="geometry" />
        </mxCell>
        <mxCell id="W41EgBRjmot6BUHBme8W-12" value="nombre" style="ellipse;whiteSpace=wrap;html=1;" parent="1" vertex="1">
          <mxGeometry x="80" y="300" width="80" height="40" as="geometry" />
        </mxCell>
        <mxCell id="W41EgBRjmot6BUHBme8W-13" value="nomb. estadio" style="ellipse;whiteSpace=wrap;html=1;" parent="1" vertex="1">
          <mxGeometry x="30" y="414" width="80" height="40" as="geometry" />
        </mxCell>
        <mxCell id="W41EgBRjmot6BUHBme8W-14" value="fecha fundacion" style="ellipse;whiteSpace=wrap;html=1;" parent="1" vertex="1">
          <mxGeometry x="10" y="354" width="80" height="40" as="geometry" />
        </mxCell>
        <mxCell id="W41EgBRjmot6BUHBme8W-16" value="ciudad origen" style="ellipse;whiteSpace=wrap;html=1;" parent="1" vertex="1">
          <mxGeometry x="80" y="460" width="80" height="40" as="geometry" />
        </mxCell>
        <mxCell id="W41EgBRjmot6BUHBme8W-17" value="&lt;u data-sider-select-id=&quot;e4f74194-b069-4cbc-b64c-2662339f5fb9&quot;&gt;cod.equipo&lt;/u&gt;" style="ellipse;whiteSpace=wrap;html=1;" parent="1" vertex="1">
          <mxGeometry x="170" y="450" width="80" height="40" as="geometry" />
        </mxCell>
        <mxCell id="W41EgBRjmot6BUHBme8W-18" value="fecha partido" style="ellipse;whiteSpace=wrap;html=1;" parent="1" vertex="1">
          <mxGeometry x="670" y="186" width="80" height="40" as="geometry" />
        </mxCell>
        <mxCell id="W41EgBRjmot6BUHBme8W-19" value="&lt;u data-sider-select-id=&quot;b388301a-bece-46fe-8d26-a66c1f8c8279&quot;&gt;cod. partido&lt;/u&gt;" style="ellipse;whiteSpace=wrap;html=1;" parent="1" vertex="1">
          <mxGeometry x="675" y="260" width="80" height="40" as="geometry" />
        </mxCell>
        <mxCell id="W41EgBRjmot6BUHBme8W-20" value="&lt;u data-sider-select-id=&quot;86f65f27-ef37-48ed-8c5c-0fdcf8fac506&quot;&gt;cantidad&lt;/u&gt;" style="ellipse;whiteSpace=wrap;html=1;" parent="1" vertex="1">
          <mxGeometry x="815" y="25" width="80" height="40" as="geometry" />
        </mxCell>
        <mxCell id="W41EgBRjmot6BUHBme8W-22" value="&lt;u data-sider-select-id=&quot;ac2c1a7e-0808-41fb-a5ab-b645115e37b4&quot;&gt;goleador&lt;/u&gt;" style="ellipse;whiteSpace=wrap;html=1;" parent="1" vertex="1">
          <mxGeometry x="835" y="105" width="80" height="40" as="geometry" />
        </mxCell>
        <mxCell id="W41EgBRjmot6BUHBme8W-23" value="Participan" style="rhombus;whiteSpace=wrap;html=1;" parent="1" vertex="1">
          <mxGeometry x="200" y="210" width="80" height="80" as="geometry" />
        </mxCell>
        <mxCell id="W41EgBRjmot6BUHBme8W-24" value="Convierten" style="rhombus;whiteSpace=wrap;html=1;" parent="1" vertex="1">
          <mxGeometry x="400" y="40" width="80" height="80" as="geometry" />
        </mxCell>
        <mxCell id="W41EgBRjmot6BUHBme8W-25" value="Juegan" style="rhombus;whiteSpace=wrap;html=1;" parent="1" vertex="1">
          <mxGeometry x="380" y="300" width="80" height="80" as="geometry" />
        </mxCell>
        <mxCell id="W41EgBRjmot6BUHBme8W-26" value="preside" style="rhombus;whiteSpace=wrap;html=1;" parent="1" vertex="1">
          <mxGeometry x="330" y="460" width="80" height="80" as="geometry" />
        </mxCell>
        <mxCell id="W41EgBRjmot6BUHBme8W-27" value="minuto" style="ellipse;whiteSpace=wrap;html=1;" parent="1" vertex="1">
          <mxGeometry x="700" y="15" width="80" height="40" as="geometry" />
        </mxCell>
        <mxCell id="W41EgBRjmot6BUHBme8W-28" value="&lt;span data-sider-select-id=&quot;e446784d-3992-4d23-8970-a6681ad1a7e2&quot;&gt;dni&lt;/span&gt;" style="ellipse;whiteSpace=wrap;html=1;" parent="1" vertex="1">
          <mxGeometry x="835" y="420" width="80" height="40" as="geometry" />
        </mxCell>
        <mxCell id="W41EgBRjmot6BUHBme8W-29" value="nombre" style="ellipse;whiteSpace=wrap;html=1;" parent="1" vertex="1">
          <mxGeometry x="535" y="510" width="80" height="40" as="geometry" />
        </mxCell>
        <mxCell id="W41EgBRjmot6BUHBme8W-30" value="apellido" style="ellipse;whiteSpace=wrap;html=1;" parent="1" vertex="1">
          <mxGeometry x="630" y="520" width="80" height="40" as="geometry" />
        </mxCell>
        <mxCell id="W41EgBRjmot6BUHBme8W-31" value="fecha nac" style="ellipse;whiteSpace=wrap;html=1;" parent="1" vertex="1">
          <mxGeometry x="725" y="450" width="80" height="40" as="geometry" />
        </mxCell>
        <mxCell id="W41EgBRjmot6BUHBme8W-32" value="&lt;u data-sider-select-id=&quot;6171dad5-8ade-4b89-98cd-3d959ca264d2&quot;&gt;equipo&lt;/u&gt;" style="ellipse;whiteSpace=wrap;html=1;" parent="1" vertex="1">
          <mxGeometry x="745" y="380" width="80" height="40" as="geometry" />
        </mxCell>
        <mxCell id="W41EgBRjmot6BUHBme8W-33" value="aÃ±o inicio" style="ellipse;whiteSpace=wrap;html=1;" parent="1" vertex="1">
          <mxGeometry x="725" y="510" width="80" height="40" as="geometry" />
        </mxCell>
        <mxCell id="W41EgBRjmot6BUHBme8W-54" value="" style="endArrow=none;html=1;rounded=0;entryX=0.5;entryY=1;entryDx=0;entryDy=0;exitX=0.5;exitY=0;exitDx=0;exitDy=0;" parent="1" source="W41EgBRjmot6BUHBme8W-23" target="W41EgBRjmot6BUHBme8W-1" edge="1">
          <mxGeometry width="50" height="50" relative="1" as="geometry">
            <mxPoint x="300" y="230" as="sourcePoint" />
            <mxPoint x="350" y="180" as="targetPoint" />
          </mxGeometry>
        </mxCell>
        <mxCell id="W41EgBRjmot6BUHBme8W-55" value="" style="endArrow=none;html=1;rounded=0;entryX=0.75;entryY=0;entryDx=0;entryDy=0;exitX=0.5;exitY=1;exitDx=0;exitDy=0;" parent="1" source="W41EgBRjmot6BUHBme8W-23" target="W41EgBRjmot6BUHBme8W-5" edge="1">
          <mxGeometry width="50" height="50" relative="1" as="geometry">
            <mxPoint x="250" y="220" as="sourcePoint" />
            <mxPoint x="240" y="170" as="targetPoint" />
          </mxGeometry>
        </mxCell>
        <mxCell id="W41EgBRjmot6BUHBme8W-56" value="" style="endArrow=none;html=1;rounded=0;entryX=0;entryY=0.5;entryDx=0;entryDy=0;exitX=1;exitY=1;exitDx=0;exitDy=0;" parent="1" source="W41EgBRjmot6BUHBme8W-5" target="W41EgBRjmot6BUHBme8W-26" edge="1">
          <mxGeometry width="50" height="50" relative="1" as="geometry">
            <mxPoint x="250" y="300" as="sourcePoint" />
            <mxPoint x="250" y="364" as="targetPoint" />
          </mxGeometry>
        </mxCell>
        <mxCell id="W41EgBRjmot6BUHBme8W-57" value="" style="endArrow=none;html=1;rounded=0;entryX=0;entryY=0.5;entryDx=0;entryDy=0;exitX=1;exitY=0.5;exitDx=0;exitDy=0;" parent="1" source="W41EgBRjmot6BUHBme8W-26" target="W41EgBRjmot6BUHBme8W-4" edge="1">
          <mxGeometry width="50" height="50" relative="1" as="geometry">
            <mxPoint x="280" y="424" as="sourcePoint" />
            <mxPoint x="320" y="510" as="targetPoint" />
          </mxGeometry>
        </mxCell>
        <mxCell id="W41EgBRjmot6BUHBme8W-59" value="" style="endArrow=none;html=1;rounded=0;entryX=1;entryY=0.5;entryDx=0;entryDy=0;exitX=0;exitY=0.5;exitDx=0;exitDy=0;" parent="1" source="W41EgBRjmot6BUHBme8W-25" target="W41EgBRjmot6BUHBme8W-5" edge="1">
          <mxGeometry width="50" height="50" relative="1" as="geometry">
            <mxPoint x="250" y="300" as="sourcePoint" />
            <mxPoint x="250" y="364" as="targetPoint" />
          </mxGeometry>
        </mxCell>
        <mxCell id="W41EgBRjmot6BUHBme8W-60" value="" style="endArrow=none;html=1;rounded=0;entryX=1;entryY=0.5;entryDx=0;entryDy=0;exitX=0.5;exitY=1;exitDx=0;exitDy=0;" parent="1" source="W41EgBRjmot6BUHBme8W-2" target="W41EgBRjmot6BUHBme8W-25" edge="1">
          <mxGeometry width="50" height="50" relative="1" as="geometry">
            <mxPoint x="390" y="324" as="sourcePoint" />
            <mxPoint x="280" y="394" as="targetPoint" />
          </mxGeometry>
        </mxCell>
        <mxCell id="W41EgBRjmot6BUHBme8W-61" value="" style="endArrow=none;html=1;rounded=0;entryX=0.5;entryY=0;entryDx=0;entryDy=0;exitX=1;exitY=1;exitDx=0;exitDy=0;" parent="1" source="W41EgBRjmot6BUHBme8W-24" target="W41EgBRjmot6BUHBme8W-2" edge="1">
          <mxGeometry width="50" height="50" relative="1" as="geometry">
            <mxPoint x="565" y="186" as="sourcePoint" />
            <mxPoint x="595" y="390" as="targetPoint" />
          </mxGeometry>
        </mxCell>
        <mxCell id="W41EgBRjmot6BUHBme8W-62" value="" style="endArrow=none;html=1;rounded=0;entryX=0.5;entryY=0;entryDx=0;entryDy=0;exitX=0;exitY=0.5;exitDx=0;exitDy=0;" parent="1" source="W41EgBRjmot6BUHBme8W-3" target="W41EgBRjmot6BUHBme8W-24" edge="1">
          <mxGeometry width="50" height="50" relative="1" as="geometry">
            <mxPoint x="630" y="280" as="sourcePoint" />
            <mxPoint x="640" y="330" as="targetPoint" />
          </mxGeometry>
        </mxCell>
        <mxCell id="2PTdIRffGyL2f2PVw5RQ-1" value="n" style="text;html=1;align=center;verticalAlign=middle;resizable=0;points=[];autosize=1;strokeColor=none;fillColor=none;" vertex="1" parent="1">
          <mxGeometry x="210" y="310" width="30" height="30" as="geometry" />
        </mxCell>
        <mxCell id="2PTdIRffGyL2f2PVw5RQ-2" value="m" style="text;html=1;align=center;verticalAlign=middle;resizable=0;points=[];autosize=1;strokeColor=none;fillColor=none;" vertex="1" parent="1">
          <mxGeometry x="195" y="160" width="30" height="30" as="geometry" />
        </mxCell>
        <mxCell id="2PTdIRffGyL2f2PVw5RQ-3" value="1" style="text;html=1;align=center;verticalAlign=middle;resizable=0;points=[];autosize=1;strokeColor=none;fillColor=none;" vertex="1" parent="1">
          <mxGeometry x="535" y="398" width="30" height="30" as="geometry" />
        </mxCell>
        <mxCell id="2PTdIRffGyL2f2PVw5RQ-4" value="1" style="text;html=1;align=center;verticalAlign=middle;resizable=0;points=[];autosize=1;strokeColor=none;fillColor=none;" vertex="1" parent="1">
          <mxGeometry x="260" y="440" width="30" height="30" as="geometry" />
        </mxCell>
        <mxCell id="2PTdIRffGyL2f2PVw5RQ-5" value="n" style="text;html=1;align=center;verticalAlign=middle;resizable=0;points=[];autosize=1;strokeColor=none;fillColor=none;" vertex="1" parent="1">
          <mxGeometry x="270" y="340" width="30" height="30" as="geometry" />
        </mxCell>
        <mxCell id="2PTdIRffGyL2f2PVw5RQ-6" value="m" style="text;html=1;align=center;verticalAlign=middle;resizable=0;points=[];autosize=1;strokeColor=none;fillColor=none;" vertex="1" parent="1">
          <mxGeometry x="590" y="276" width="30" height="30" as="geometry" />
        </mxCell>
        <mxCell id="2PTdIRffGyL2f2PVw5RQ-7" value="n" style="text;html=1;align=center;verticalAlign=middle;resizable=0;points=[];autosize=1;strokeColor=none;fillColor=none;" vertex="1" parent="1">
          <mxGeometry x="590" y="186" width="30" height="30" as="geometry" />
        </mxCell>
        <mxCell id="2PTdIRffGyL2f2PVw5RQ-8" value="m" style="text;html=1;align=center;verticalAlign=middle;resizable=0;points=[];autosize=1;strokeColor=none;fillColor=none;" vertex="1" parent="1">
          <mxGeometry x="620" y="115" width="30" height="30" as="geometry" />
        </mxCell>
      </root>
    </mxGraphModel>
  </diagram>
</mxfile>
